<svg width="389" height="116" viewBox="0 0 389 116" fill="none" xmlns="http://www.w3.org/2000/svg">
<path opacity="0.6" d="M473.25 49.4746C473.25 37.0289 466.979 25.4534 450.944 15.892C441.076 10.0082 426.66 6.64074 413.062 3.58362C403.054 1.33368 386.277 -0.266312 376.809 3.53845C367.119 7.43238 361.787 15.5516 358.462 21.4251C353.487 30.2126 353.443 39.9382 355.778 48.9552C359.384 62.8822 374.313 75.8378 372.673 90.2165C371.642 99.2517 364.68 107.194 342.535 111.965C328.657 114.955 310.145 114.289 303.817 113.907C270.631 111.903 256.124 99.0963 245.345 84.4349C240.549 77.9107 236.239 71.4049 232.102 64.7641C227.756 57.7855 224.607 50.3391 214.24 44.9578C200.071 37.6031 176.595 31.8804 156.823 30.3232C124.299 27.7617 87.9631 38.684 64.9871 49.9231C46.3144 59.0572 35.9566 69.6675 21.7526 80.7311C-10.3436 105.731 21.3504 82.2521 1.24998 99.8825" stroke="#2B7FFF" stroke-width="2.5" stroke-linecap="round" stroke-linejoin="round" stroke-dasharray="10 10"/>
</svg>
